<svg width="720" height="420" viewBox="0 0 720 420" fill="none" xmlns="http://www.w3.org/2000/svg" style="overflow:hidden">
  <rect width="720" height="420" fill="#F1F5F9"/>
  <rect x="26" y="20" width="668" height="380" rx="14" fill="#FFFFFF" stroke="#DCE3EE"/>
  <rect x="26" y="20" width="668" height="16" rx="14" fill="#0F766E"/>
  <rect x="26" y="36" width="220" height="364" fill="#ECFEFF"/>
  <rect x="84" y="74" width="104" height="124" rx="10" fill="#5EEAD4"/>
  <circle cx="136" cy="113" r="21" fill="#CCFBF1"/>
  <rect x="106" y="137" width="60" height="38" rx="12" fill="#CCFBF1"/>
  <text x="56" y="226" fill="#0F172A" font-size="16" font-family="Arial" font-weight="700">Maria Lopez</text>
  <text x="56" y="246" fill="#475569" font-size="11" font-family="Arial">UI/UX Designer</text>
  <rect x="56" y="260" width="150" height="1" fill="#99F6E4"/>
  <text x="56" y="280" fill="#0F766E" font-size="11" font-family="Arial" font-weight="700">Skills</text>
  <rect x="56" y="290" width="150" height="6" rx="3" fill="#94A3B8"/>
  <rect x="56" y="302" width="150" height="6" rx="3" fill="#94A3B8"/>
  <rect x="272" y="112" width="374" height="1" fill="#CBD5E1"/>
  <rect x="272" y="136" width="210" height="10" rx="4" fill="#14B8A6"/>
  <rect x="272" y="154" width="374" height="7" rx="3.5" fill="#CBD5E1"/>
  <rect x="272" y="167" width="350" height="7" rx="3.5" fill="#CBD5E1"/>
  <rect x="272" y="194" width="250" height="10" rx="4" fill="#14B8A6"/>
  <rect x="272" y="212" width="374" height="7" rx="3.5" fill="#CBD5E1"/>
  <rect x="272" y="225" width="320" height="7" rx="3.5" fill="#CBD5E1"/>
</svg>
