<svg width="720" height="420" viewBox="0 0 720 420" fill="none" xmlns="http://www.w3.org/2000/svg" style="overflow:hidden">
  <rect width="720" height="420" fill="#F1F5F9"/>
  <rect x="26" y="20" width="668" height="380" rx="14" fill="#FFFFFF" stroke="#DCE3EE"/>
  <rect x="26" y="20" width="668" height="16" rx="14" fill="#334155"/>
  <rect x="26" y="36" width="184" height="364" fill="#1E293B"/>
  <rect x="62" y="70" width="112" height="124" rx="10" fill="#64748B"/>
  <circle cx="118" cy="108" r="21" fill="#CBD5E1"/>
  <rect x="88" y="132" width="60" height="38" rx="12" fill="#CBD5E1"/>
  <text x="52" y="222" fill="#E2E8F0" font-size="14" font-family="Arial" font-weight="700">Alex Morgan</text>
  <text x="52" y="241" fill="#94A3B8" font-size="11" font-family="Arial">Operations Lead</text>
  <text x="52" y="272" fill="#E2E8F0" font-size="11" font-family="Arial" font-weight="700">Contact</text>
  <rect x="52" y="282" width="132" height="6" rx="3" fill="#94A3B8"/>
  <rect x="52" y="294" width="132" height="6" rx="3" fill="#94A3B8"/>
  <rect x="236" y="110" width="420" height="1" fill="#CBD5E1"/>
  <rect x="236" y="132" width="240" height="10" rx="4" fill="#F43F5E"/>
  <rect x="236" y="150" width="420" height="7" rx="3.5" fill="#CBD5E1"/>
  <rect x="236" y="163" width="390" height="7" rx="3.5" fill="#CBD5E1"/>
  <rect x="236" y="188" width="274" height="10" rx="4" fill="#F43F5E"/>
  <rect x="236" y="206" width="420" height="7" rx="3.5" fill="#CBD5E1"/>
  <rect x="236" y="219" width="360" height="7" rx="3.5" fill="#CBD5E1"/>
</svg>
