<svg width="720" height="420" viewBox="0 0 720 420" fill="none" xmlns="http://www.w3.org/2000/svg">
  <rect width="720" height="420" fill="#F1F5F9"/>
  <rect x="26" y="20" width="668" height="380" rx="14" fill="#FFFFFF" stroke="#DCE3EE"/>
  <rect x="26" y="20" width="668" height="16" rx="14" fill="#4F46E5"/>
  <text x="56" y="70" fill="#0F172A" font-size="20" font-family="Arial" font-weight="700">Sam McDonald</text>
  <text x="56" y="93" fill="#64748B" font-size="12" font-family="Arial">Product Analyst | 4+ years experience</text>
  <rect x="56" y="110" width="390" height="1" fill="#CBD5E1"/>
  <rect x="56" y="132" width="152" height="10" rx="4" fill="#6366F1"/>
  <rect x="56" y="150" width="388" height="7" rx="3.5" fill="#CBD5E1"/>
  <rect x="56" y="163" width="358" height="7" rx="3.5" fill="#CBD5E1"/>
  <rect x="56" y="188" width="138" height="10" rx="4" fill="#6366F1"/>
  <rect x="56" y="206" width="388" height="7" rx="3.5" fill="#CBD5E1"/>
  <rect x="56" y="219" width="340" height="7" rx="3.5" fill="#CBD5E1"/>
  <rect x="484" y="62" width="178" height="308" rx="10" fill="#EEF2FF"/>
  <rect x="534" y="86" width="78" height="92" rx="10" fill="#A5B4FC"/>
  <circle cx="573" cy="117" r="18" fill="#E0E7FF"/>
  <rect x="547" y="138" width="52" height="28" rx="10" fill="#E0E7FF"/>
  <text x="510" y="196" fill="#334155" font-size="11" font-family="Arial" font-weight="700">Contact</text>
  <rect x="510" y="206" width="124" height="6" rx="3" fill="#94A3B8"/>
  <rect x="510" y="218" width="124" height="6" rx="3" fill="#94A3B8"/>
  <text x="510" y="244" fill="#334155" font-size="11" font-family="Arial" font-weight="700">Skills</text>
  <rect x="510" y="254" width="124" height="6" rx="3" fill="#94A3B8"/>
  <rect x="510" y="266" width="124" height="6" rx="3" fill="#94A3B8"/>
</svg>
